<svg xmlns="http://www.w3.org/2000/svg" viewBox="0 0 24 24" width="48px" height="48px"><path d="M 12 4.5 C 7.099 4.5 2.5245 7.2827656 0.0625 11.759766 C -0.0205 11.909766 -0.0205 12.091234 0.0625 12.240234 C 0.9695 13.889234 2.2084844 15.336047 3.6464844 16.498047 L 0.24023438 18.572266 C 0.004234375 18.716266 -0.071734375 19.023766 0.072265625 19.259766 C 0.16626563 19.414766 0.332 19.5 0.5 19.5 C 0.588 19.5 0.67876563 19.477734 0.75976562 19.427734 L 9.2675781 14.248047 L 9.2695312 14.248047 C 9.2695312 14.248047 9.2695312 14.246094 9.2695312 14.246094 L 23.759766 5.4277344 C 23.995766 5.2837344 24.071734 4.9762344 23.927734 4.7402344 C 23.784734 4.5052344 23.477234 4.4292656 23.240234 4.5722656 L 19.501953 6.8496094 C 17.267953 5.3166094 14.683 4.5 12 4.5 z M 12 5.5 C 14.33 5.5 16.581547 6.165875 18.560547 7.421875 L 15.130859 9.5097656 C 14.375859 8.5567656 13.238 8 12 8 C 9.794 8 8 9.794 8 12 C 8 12.566 8.1215625 13.122766 8.3515625 13.634766 L 4.5507812 15.949219 C 3.1627813 14.892219 1.9642187 13.543 1.0742188 12 C 3.3902187 7.983 7.552 5.5 12 5.5 z M 21.076172 8.2890625 C 20.948172 8.2896875 20.821609 8.339 20.724609 8.4375 C 20.530609 8.6335 20.532516 8.9505313 20.728516 9.1445312 C 21.582516 9.9885312 22.319781 10.949 22.925781 12 C 20.609781 16.017 16.448 18.5 12 18.5 C 10.13 18.5 8.3294844 18.082766 6.6464844 17.259766 C 6.3984844 17.138766 6.0985625 17.241281 5.9765625 17.488281 C 5.8555625 17.736281 5.9570781 18.036203 6.2050781 18.158203 C 8.0260781 19.048203 9.977 19.5 12 19.5 C 16.901 19.5 21.4755 16.717234 23.9375 12.240234 C 24.0205 12.090234 24.0205 11.908766 23.9375 11.759766 C 23.2605 10.528766 22.418641 9.4095938 21.431641 8.4335938 C 21.333641 8.3365937 21.204172 8.2884375 21.076172 8.2890625 z M 12 9 C 12.883 9 13.683047 9.394875 14.248047 10.046875 L 9.2363281 13.097656 C 9.0973281 12.747656 9 12.381 9 12 C 9 10.346 10.346 9 12 9 z M 15.521484 11.685547 C 15.239484 11.660547 15.010094 11.883156 14.996094 12.160156 C 14.913094 13.752156 13.597 15 12 15 C 11.57 15 11.156578 14.911328 10.767578 14.736328 C 10.516578 14.623328 10.218469 14.735328 10.105469 14.986328 C 9.9914687 15.237328 10.103469 15.532484 10.355469 15.646484 C 10.873469 15.880484 11.427 16 12 16 C 14.129 16 15.883141 14.335937 15.994141 12.210938 C 16.008141 11.934938 15.797484 11.699547 15.521484 11.685547 z"/></svg>