<svg xmlns="http://www.w3.org/2000/svg" viewBox="0 0 100 100" width="200px" height="200px"><path fill="#c7ede6" d="M87.215,56.71C88.35,54.555,89,52.105,89,49.5c0-6.621-4.159-12.257-10.001-14.478 C78.999,35.015,79,35.008,79,35c0-11.598-9.402-21-21-21c-9.784,0-17.981,6.701-20.313,15.757C36.211,29.272,34.638,29,33,29 c-7.692,0-14.023,5.793-14.89,13.252C12.906,43.353,9,47.969,9,53.5C9,59.851,14.149,65,20.5,65c0.177,0,0.352-0.012,0.526-0.022 C21.022,65.153,21,65.324,21,65.5C21,76.822,30.178,86,41.5,86c6.437,0,12.175-2.972,15.934-7.614C59.612,80.611,62.64,82,66,82 c4.65,0,8.674-2.65,10.666-6.518C77.718,75.817,78.837,76,80,76c6.075,0,11-4.925,11-11C91,61.689,89.53,58.727,87.215,56.71z"/><path fill="#fdfcef" d="M77.5,60.5V61h3v-0.5c0,0,4.242,0,5.5,0c2.485,0,4.5-2.015,4.5-4.5 c0-2.333-1.782-4.229-4.055-4.455C86.467,51.364,86.5,51.187,86.5,51c0-2.485-2.015-4.5-4.5-4.5c-1.438,0-2.703,0.686-3.527,1.736 C78.333,45.6,76.171,43.5,73.5,43.5c-2.761,0-5,2.239-5,5c0,0.446,0.077,0.87,0.187,1.282C68.045,49.005,67.086,48.5,66,48.5 c-1.781,0-3.234,1.335-3.455,3.055C62.364,51.533,62.187,51.5,62,51.5c-2.485,0-4.5,2.015-4.5,4.5s2.015,4.5,4.5,4.5s9.5,0,9.5,0 H77.5z"/><path fill="#472b29" d="M73.5,43c-3.033,0-5.5,2.467-5.5,5.5c0,0.016,0,0.031,0,0.047C67.398,48.192,66.71,48,66,48 c-1.831,0-3.411,1.261-3.858,3.005C62.095,51.002,62.048,51,62,51c-2.757,0-5,2.243-5,5s2.243,5,5,5h15.5 c0.276,0,0.5-0.224,0.5-0.5S77.776,60,77.5,60H62c-2.206,0-4-1.794-4-4s1.794-4,4-4c0.117,0,0.23,0.017,0.343,0.032l0.141,0.019 c0.021,0.003,0.041,0.004,0.062,0.004c0.246,0,0.462-0.185,0.495-0.437C63.232,50.125,64.504,49,66,49 c0.885,0,1.723,0.401,2.301,1.1c0.098,0.118,0.241,0.182,0.386,0.182c0.078,0,0.156-0.018,0.228-0.056 c0.209-0.107,0.314-0.346,0.254-0.573C69.054,49.218,69,48.852,69,48.5c0-2.481,2.019-4.5,4.5-4.5 c2.381,0,4.347,1.872,4.474,4.263c0.011,0.208,0.15,0.387,0.349,0.45c0.05,0.016,0.101,0.024,0.152,0.024 c0.15,0,0.296-0.069,0.392-0.192C79.638,47.563,80.779,47,82,47c2.206,0,4,1.794,4,4c0,0.117-0.017,0.23-0.032,0.343l-0.019,0.141 c-0.016,0.134,0.022,0.268,0.106,0.373c0.084,0.105,0.207,0.172,0.34,0.185C88.451,52.247,90,53.949,90,56c0,2.206-1.794,4-4,4 h-5.5c-0.276,0-0.5,0.224-0.5,0.5s0.224,0.5,0.5,0.5H86c2.757,0,5-2.243,5-5c0-2.397-1.689-4.413-4.003-4.877 C86.999,51.082,87,51.041,87,51c0-2.757-2.243-5-5-5c-1.176,0-2.293,0.416-3.183,1.164C78.219,44.76,76.055,43,73.5,43L73.5,43z"/><path fill="#472b29" d="M72 50c-1.403 0-2.609.999-2.913 2.341C68.72 52.119 68.301 52 67.875 52c-1.202 0-2.198.897-2.353 2.068C65.319 54.022 65.126 54 64.938 54c-1.529 0-2.811 1.2-2.918 2.732C62.01 56.87 62.114 56.99 62.251 57c.006 0 .012 0 .018 0 .13 0 .24-.101.249-.232.089-1.271 1.151-2.268 2.419-2.268.229 0 .47.042.738.127.022.007.045.01.067.01.055 0 .11-.02.156-.054C65.962 54.537 66 54.455 66 54.375c0-1.034.841-1.875 1.875-1.875.447 0 .885.168 1.231.473.047.041.106.063.165.063.032 0 .063-.006.093-.019.088-.035.148-.117.155-.212C69.623 51.512 70.712 50.5 72 50.5c.208 0 .425.034.682.107.023.007.047.01.07.01.109 0 .207-.073.239-.182.038-.133-.039-.271-.172-.309C72.517 50.04 72.256 50 72 50L72 50zM85.883 51.5c-1.326 0-2.508.897-2.874 2.182-.038.133.039.271.172.309C83.205 53.997 83.228 54 83.25 54c.109 0 .209-.072.24-.182C83.795 52.748 84.779 52 85.883 52c.117 0 .23.014.342.029.012.002.023.003.035.003.121 0 .229-.092.246-.217.019-.137-.077-.263-.214-.281C86.158 51.516 86.022 51.5 85.883 51.5L85.883 51.5z"/><path fill="#fff" d="M15.5 51h-10C5.224 51 5 50.776 5 50.5S5.224 50 5.5 50h10c.276 0 .5.224.5.5S15.777 51 15.5 51zM18.5 51h-1c-.276 0-.5-.224-.5-.5s.224-.5.5-.5h1c.276 0 .5.224.5.5S18.777 51 18.5 51zM23.491 53H14.5c-.276 0-.5-.224-.5-.5s.224-.5.5-.5h8.991c.276 0 .5.224.5.5S23.767 53 23.491 53zM12.5 53h-1c-.276 0-.5-.224-.5-.5s.224-.5.5-.5h1c.276 0 .5.224.5.5S12.777 53 12.5 53zM9.5 53h-2C7.224 53 7 52.776 7 52.5S7.224 52 7.5 52h2c.276 0 .5.224.5.5S9.777 53 9.5 53zM15.5 55h-2c-.276 0-.5-.224-.5-.5s.224-.5.5-.5h2c.276 0 .5.224.5.5S15.776 55 15.5 55zM18.5 46c-.177 0-.823 0-1 0-.276 0-.5.224-.5.5 0 .276.224.5.5.5.177 0 .823 0 1 0 .276 0 .5-.224.5-.5C19 46.224 18.776 46 18.5 46zM18.5 48c-.177 0-4.823 0-5 0-.276 0-.5.224-.5.5 0 .276.224.5.5.5.177 0 4.823 0 5 0 .276 0 .5-.224.5-.5C19 48.224 18.776 48 18.5 48zM23.5 50c-.177 0-2.823 0-3 0-.276 0-.5.224-.5.5 0 .276.224.5.5.5.177 0 2.823 0 3 0 .276 0 .5-.224.5-.5C24 50.224 23.776 50 23.5 50z"/><g><path fill="#fff" d="M72.5 24h-10c-.276 0-.5-.224-.5-.5s.224-.5.5-.5h10c.276 0 .5.224.5.5S72.776 24 72.5 24zM76.5 24h-2c-.276 0-.5-.224-.5-.5s.224-.5.5-.5h2c.276 0 .5.224.5.5S76.776 24 76.5 24zM81.5 26h-10c-.276 0-.5-.224-.5-.5s.224-.5.5-.5h10c.276 0 .5.224.5.5S81.777 26 81.5 26zM69.5 26h-1c-.276 0-.5-.224-.5-.5s.224-.5.5-.5h1c.276 0 .5.224.5.5S69.776 26 69.5 26zM66.47 26H64.5c-.276 0-.5-.224-.5-.5s.224-.5.5-.5h1.97c.276 0 .5.224.5.5S66.746 26 66.47 26zM75.5 22h-5c-.276 0-.5-.224-.5-.5s.224-.5.5-.5h5c.276 0 .5.224.5.5S75.777 22 75.5 22zM72.5 28h-2c-.276 0-.5-.224-.5-.5s.224-.5.5-.5h2c.276 0 .5.224.5.5S72.776 28 72.5 28z"/></g><g><path fill="#5aba9e" d="M52 26.75A23.25 23.25 0 1 0 52 73.25A23.25 23.25 0 1 0 52 26.75Z"/></g><g><path fill="#472b29" d="M52,73.95c-11.708,0-21.883-8.711-23.668-20.264c-0.059-0.382,0.203-0.739,0.585-0.798 c0.378-0.066,0.739,0.202,0.799,0.585C31.396,64.349,40.977,72.55,52,72.55c12.435,0,22.55-10.115,22.55-22.55 S64.435,27.45,52,27.45c-10.897,0-20.226,7.767-22.182,18.469c-0.069,0.381-0.436,0.631-0.814,0.563 c-0.38-0.069-0.632-0.434-0.563-0.814C30.519,34.3,40.427,26.05,52,26.05c13.206,0,23.95,10.744,23.95,23.95S65.206,73.95,52,73.95 z"/></g><g><path fill="#472b29" d="M70.623,44.987c-0.214,0-0.412-0.138-0.478-0.353c-0.085-0.275-0.175-0.548-0.272-0.816 c-0.375-1.048-0.849-2.069-1.407-3.036c-0.139-0.239-0.057-0.545,0.183-0.683c0.235-0.142,0.544-0.058,0.683,0.183 c0.589,1.019,1.088,2.095,1.483,3.197c0.102,0.283,0.197,0.571,0.286,0.86c0.082,0.265-0.066,0.544-0.33,0.625 C70.721,44.98,70.672,44.987,70.623,44.987z"/></g><g><path fill="#472b29" d="M32.857,46.663c-0.033,0-0.066-0.003-0.1-0.01c-0.271-0.056-0.445-0.319-0.39-0.59 C34.252,36.805,42.509,30.085,52,30.085c5.733,0,11.203,2.457,15.007,6.74c0.287,0.323,0.565,0.657,0.831,1 c0.169,0.219,0.129,0.533-0.089,0.702c-0.22,0.167-0.533,0.129-0.702-0.089c-0.252-0.325-0.515-0.642-0.788-0.949 c-3.613-4.07-8.811-6.404-14.259-6.404c-9.017,0-16.862,6.383-18.654,15.178C33.298,46.5,33.09,46.663,32.857,46.663z"/></g><g><path fill="#472b29" d="M52,70.035c-9.822,0-18.338-7.29-19.807-16.957c-0.042-0.273,0.146-0.528,0.419-0.569 c0.274-0.045,0.528,0.146,0.569,0.419C34.577,62.11,42.667,69.035,52,69.035c10.496,0,19.035-8.513,19.035-18.976 c0-0.949-0.071-1.907-0.213-2.847c-0.041-0.272,0.146-0.527,0.42-0.568c0.269-0.036,0.527,0.146,0.568,0.42 c0.149,0.988,0.225,1.996,0.225,2.995C72.035,61.074,63.048,70.035,52,70.035z"/></g><g><path fill="#fdfcef" d="M36.5,73.5c0,0,1.567,0,3.5,0s3.5-1.567,3.5-3.5c0-1.781-1.335-3.234-3.055-3.455 C40.473,66.366,40.5,66.187,40.5,66c0-1.933-1.567-3.5-3.5-3.5c-1.032,0-1.95,0.455-2.59,1.165 c-0.384-1.808-1.987-3.165-3.91-3.165c-2.209,0-4,1.791-4,4c0,0.191,0.03,0.374,0.056,0.558C26.128,64.714,25.592,64.5,25,64.5 c-1.228,0-2.245,0.887-2.455,2.055C22.366,66.527,22.187,66.5,22,66.5c-1.933,0-3.5,1.567-3.5,3.5s1.567,3.5,3.5,3.5s7.5,0,7.5,0 V74h7V73.5z"/><path fill="#472b29" d="M38.25 69C38.112 69 38 68.888 38 68.75c0-1.223.995-2.218 2.218-2.218.034.009.737-.001 1.244.136.133.036.212.173.176.306-.036.134-.173.213-.306.176-.444-.12-1.1-.12-1.113-.118-.948 0-1.719.771-1.719 1.718C38.5 68.888 38.388 69 38.25 69zM31.5 73A.5.5 0 1 0 31.5 74 .5.5 0 1 0 31.5 73z"/><path fill="#472b29" d="M40,74h-3.5c-0.276,0-0.5-0.224-0.5-0.5s0.224-0.5,0.5-0.5H40c1.654,0,3-1.346,3-3 c0-1.496-1.125-2.768-2.618-2.959c-0.134-0.018-0.255-0.088-0.336-0.196s-0.115-0.244-0.094-0.377C39.975,66.314,40,66.16,40,66 c0-1.654-1.346-3-3-3c-0.85,0-1.638,0.355-2.219,1c-0.125,0.139-0.321,0.198-0.5,0.148c-0.182-0.049-0.321-0.195-0.36-0.379 C33.58,62.165,32.141,61,30.5,61c-1.93,0-3.5,1.57-3.5,3.5c0,0.143,0.021,0.28,0.041,0.418c0.029,0.203-0.063,0.438-0.242,0.54 c-0.179,0.102-0.396,0.118-0.556-0.01C25.878,65.155,25.449,65,25,65c-0.966,0-1.792,0.691-1.963,1.644 c-0.048,0.267-0.296,0.446-0.569,0.405C22.314,67.025,22.16,67,22,67c-1.654,0-3,1.346-3,3s1.346,3,3,3h7.5 c0.276,0,0.5,0.224,0.5,0.5S29.776,74,29.5,74H22c-2.206,0-4-1.794-4-4s1.794-4,4-4c0.059,0,0.116,0.002,0.174,0.006 C22.588,64.82,23.711,64,25,64c0.349,0,0.689,0.061,1.011,0.18C26.176,61.847,28.126,60,30.5,60c1.831,0,3.466,1.127,4.153,2.774 C35.333,62.276,36.155,62,37,62c2.206,0,4,1.794,4,4c0,0.048-0.001,0.095-0.004,0.142C42.739,66.59,44,68.169,44,70 C44,72.206,42.206,74,40,74z"/><path fill="#472b29" d="M34.5,73c-0.159,0-0.841,0-1,0c-0.276,0-0.5,0.224-0.5,0.5c0,0.276,0.224,0.5,0.5,0.5 c0.159,0,0.841,0,1,0c0.276,0,0.5-0.224,0.5-0.5C35,73.224,34.776,73,34.5,73z"/></g><g><path fill="#fffef4" d="M52.328,48.79l-4.243-4.243c-0.391-0.39-1.024-0.39-1.414,0c-0.391,0.391-0.391,1.024,0,1.415 l2.538,2.538H27.5c-0.552,0-1,0.448-1,1s0.448,1,1,1h21.709l-2.537,2.538c-0.391,0.391-0.391,1.024,0,1.415s1.024,0.391,1.414,0 l4.243-4.243c0.196-0.196,0.293-0.453,0.292-0.709C52.622,49.243,52.524,48.986,52.328,48.79z"/><path fill="#472b29" d="M47.378,54.994c-0.32,0-0.64-0.121-0.884-0.365c-0.487-0.487-0.487-1.281,0-1.769l2.111-2.11H27.5 c-0.689,0-1.25-0.561-1.25-1.25s0.561-1.25,1.25-1.25h21.106l-2.111-2.111c-0.487-0.487-0.487-1.28,0-1.768 c0.486-0.488,1.28-0.489,1.768,0l4.242,4.242c0.236,0.236,0.366,0.551,0.366,0.887s-0.13,0.651-0.366,0.886l-4.242,4.243 C48.019,54.873,47.699,54.994,47.378,54.994z M27.5,48.75c-0.414,0-0.75,0.337-0.75,0.75s0.336,0.75,0.75,0.75h22.313l-2.964,2.964 c-0.292,0.293-0.292,0.769,0,1.062c0.284,0.282,0.778,0.284,1.061,0l4.242-4.243c0.142-0.142,0.22-0.33,0.22-0.532 s-0.078-0.392-0.22-0.533l-4.242-4.242c-0.283-0.283-0.777-0.281-1.061,0c-0.292,0.292-0.292,0.769,0,1.061l2.965,2.965H27.5z"/></g></svg>