
<svg xmlns="http://www.w3.org/2000/svg"  viewBox="0 0 100 100" width="200px" height="200px"><path fill="#c7ede6" d="M87.548,56.71c1.135-2.155,1.785-4.605,1.785-7.21c0-6.621-4.159-12.257-10.001-14.478 c0-0.008,0.001-0.015,0.001-0.022c0-11.598-9.402-21-21-21c-9.784,0-17.981,6.701-20.313,15.757C36.544,29.272,34.972,29,33.333,29 c-7.692,0-14.023,5.793-14.89,13.252c-5.204,1.1-9.11,5.716-9.11,11.248c0,6.351,5.149,11.5,11.5,11.5 c0.177,0,0.352-0.012,0.526-0.022c-0.004,0.175-0.026,0.346-0.026,0.522c0,11.322,9.178,20.5,20.5,20.5 c6.437,0,12.175-2.972,15.934-7.614C59.945,80.611,62.974,82,66.333,82c4.65,0,8.674-2.65,10.666-6.518 C78.051,75.817,79.171,76,80.333,76c6.075,0,11-4.925,11-11C91.333,61.689,89.863,58.727,87.548,56.71z"/><path fill="#fdfcef" d="M71.333,37h-5.75c-2.485,0.75-4.5-1.265-4.5-3.75c0-2.333,1.782-4.229,4.055-4.455 c-0.022-0.181-0.055-0.358-0.055-0.545c0-2.485,2.015-4.5,4.5-4.5c1.438,0,2.703,0.686,3.527,1.736 c0.14-2.636,2.302-4.736,4.973-4.736c2.761,0,5,2.239,5,5c0,0.446-0.077,0.87-0.187,1.282c0.642-0.777,1.6-1.282,2.687-1.282 c1.781,0,3.234,1.335,3.455,3.055c0.181-0.022,0.358-0.055,0.545-0.055c2.485,0,4.5,2.015,4.5,4.5s-2.015,4.5-4.5,3.75h-9.5h-5.75 v1h-3V37z"/><path fill="#472b29" d="M77.833,20c3.033,0,5.5,2.467,5.5,5.5c0,0.016,0,0.031,0,0.047c0.602-0.354,1.29-0.547,2-0.547 c1.831,0,3.411,1.261,3.858,3.005C89.238,28.002,89.285,28,89.333,28c3.099,0,5.549,2.834,4.893,6.047 C93.746,36.398,91.537,38,89.137,38l-14.679,0c-0.276,0-0.5-0.224-0.5-0.5s0.224-0.5,0.5-0.5l14.718,0 c1.92,0,3.687-1.282,4.071-3.163C93.772,31.267,91.812,29,89.333,29c-0.117,0-0.23,0.017-0.343,0.032l-0.141,0.019 c-0.021,0.003-0.041,0.004-0.062,0.004c-0.246,0-0.462-0.185-0.495-0.437C88.101,27.125,86.829,26,85.333,26 c-0.885,0-1.723,0.401-2.301,1.1c-0.098,0.118-0.241,0.182-0.386,0.182c-0.078,0-0.156-0.018-0.228-0.056 c-0.209-0.107-0.314-0.346-0.254-0.573c0.16-0.6,0.202-1.069,0.147-1.549c-0.24-2.127-1.959-3.909-4.092-4.088 c-2.551-0.215-4.725,1.728-4.859,4.246c-0.011,0.208-0.15,0.387-0.349,0.45c-0.05,0.016-0.101,0.024-0.152,0.024 c-0.15,0-0.296-0.069-0.392-0.192C71.696,24.563,70.554,24,69.333,24c-2.206,0-4,1.794-4,4c0,0.117,0.017,0.23,0.032,0.343 l0.019,0.141c0.016,0.134-0.022,0.268-0.106,0.373c-0.084,0.105-0.207,0.172-0.34,0.185c-2.352,0.234-4.042,2.429-3.504,4.865 C61.842,35.76,63.609,37,65.506,37l5.952,0c0.276,0,0.5,0.224,0.5,0.5s-0.224,0.5-0.5,0.5l-5.938,0 c-2.467,0-4.708-1.704-5.115-4.138c-0.462-2.763,1.344-5.22,3.931-5.74c-0.002-0.041-0.003-0.082-0.003-0.123c0-2.757,2.243-5,5-5 c1.176,0,2.293,0.416,3.183,1.164C73.115,21.76,75.278,20,77.833,20L77.833,20z"/><path fill="#472b29" d="M79.583 27.25c1.403 0 2.609.999 2.913 2.341.367-.222.786-.341 1.212-.341 1.202 0 2.198.897 2.353 2.068.203-.045.396-.068.585-.068 1.529 0 2.811 1.2 2.918 2.732.009.138-.094.257-.232.267-.006 0-.012 0-.018 0-.13 0-.24-.101-.249-.232-.089-1.271-1.151-2.268-2.419-2.268-.229 0-.47.042-.738.127-.022.007-.045.01-.067.01-.055 0-.11-.02-.156-.054-.064-.047-.102-.129-.102-.209 0-1.034-.841-1.875-1.875-1.875-.447 0-.885.168-1.231.473-.047.041-.106.063-.165.063-.032 0-.063-.006-.093-.019-.088-.035-.148-.117-.155-.212-.102-1.292-1.191-2.305-2.479-2.305-.208 0-.425.034-.682.107-.023.007-.047.01-.07.01-.109 0-.207-.073-.239-.182-.038-.133.039-.271.172-.309C79.067 27.29 79.327 27.25 79.583 27.25L79.583 27.25zM65.7 28.75c1.326 0 2.508.897 2.874 2.182.038.133-.039.271-.172.309-.023.007-.046.01-.068.01-.109 0-.209-.072-.24-.182-.305-1.071-1.289-1.818-2.393-1.818-.117 0-.23.014-.342.029-.012.002-.023.003-.035.003-.121 0-.229-.092-.246-.217-.019-.137.077-.263.214-.281C65.426 28.766 65.561 28.75 65.7 28.75L65.7 28.75z"/><path fill="#fff" d="M18.738 47H8.833c-.276 0-.5-.224-.5-.5s.224-.5.5-.5h9.905c.276 0 .5.224.5.5S19.015 47 18.738 47zM21.833 47h-1c-.276 0-.5-.224-.5-.5s.224-.5.5-.5h1c.276 0 .5.224.5.5S22.11 47 21.833 47zM26.824 49h-8.991c-.276 0-.5-.224-.5-.5s.224-.5.5-.5h8.991c.276 0 .5.224.5.5S27.1 49 26.824 49zM15.833 49h-1c-.276 0-.5-.224-.5-.5s.224-.5.5-.5h1c.276 0 .5.224.5.5S16.11 49 15.833 49zM12.833 49h-2c-.276 0-.5-.224-.5-.5s.224-.5.5-.5h2c.276 0 .5.224.5.5S13.11 49 12.833 49zM18.833 51h-2c-.276 0-.5-.224-.5-.5s.224-.5.5-.5h2c.276 0 .5.224.5.5S19.109 51 18.833 51zM21.833 42c-.177 0-.823 0-1 0-.276 0-.5.224-.5.5 0 .276.224.5.5.5.177 0 .823 0 1 0 .276 0 .5-.224.5-.5C22.333 42.224 22.109 42 21.833 42zM21.833 44c-.177 0-4.823 0-5 0-.276 0-.5.224-.5.5 0 .276.224.5.5.5.177 0 4.823 0 5 0 .276 0 .5-.224.5-.5C22.333 44.224 22.109 44 21.833 44zM26.833 46c-.177 0-2.823 0-3 0-.276 0-.5.224-.5.5 0 .276.224.5.5.5.177 0 2.823 0 3 0 .276 0 .5-.224.5-.5C27.333 46.224 27.109 46 26.833 46zM85.333 64h-10c-.276 0-.5-.224-.5-.5s.224-.5.5-.5h10c.276 0 .5.224.5.5S85.609 64 85.333 64zM89.333 64h-2c-.276 0-.5-.224-.5-.5s.224-.5.5-.5h2c.276 0 .5.224.5.5S89.609 64 89.333 64zM94.333 66h-10c-.276 0-.5-.224-.5-.5s.224-.5.5-.5h10c.276 0 .5.224.5.5S94.61 66 94.333 66zM82.333 66h-1c-.276 0-.5-.224-.5-.5s.224-.5.5-.5h1c.276 0 .5.224.5.5S82.609 66 82.333 66zM79.208 66h-1.875c-.276 0-.5-.224-.5-.5s.224-.5.5-.5h1.875c.276 0 .5.224.5.5S79.484 66 79.208 66zM88.333 62h-5c-.276 0-.5-.224-.5-.5s.224-.5.5-.5h5c.276 0 .5.224.5.5S88.61 62 88.333 62zM85.333 68h-2c-.276 0-.5-.224-.5-.5s.224-.5.5-.5h2c.276 0 .5.224.5.5S85.609 68 85.333 68z"/><path fill="#fdfcef" d="M19.583,72.5c0,0-1.567,0-3.5,0s-3.5-1.567-3.5-3.5c0-1.781,1.335-3.234,3.055-3.455 c-0.028-0.179-0.055-0.358-0.055-0.545c0-1.933,1.567-3.5,3.5-3.5c1.032,0,1.95,0.455,2.59,1.165 c0.384-1.808,1.987-3.165,3.91-3.165c2.209,0,4,1.791,4,4c0,0.191-0.03,0.374-0.056,0.558c0.428-0.344,0.965-0.558,1.556-0.558 c1.228,0,2.245,0.887,2.455,2.055c0.179-0.028,0.358-0.055,0.545-0.055c1.933,0,3.5,1.567,3.5,3.5s-1.567,3.5-3.5,3.5 s-7.5,0-7.5,0V73h-7V72.5z"/><path fill="#472b29" d="M17.833 68c.138 0 .25-.112.25-.25 0-1.223-.995-2.218-2.218-2.218-.034.009-.737-.001-1.244.136-.133.036-.212.173-.176.306.036.134.173.213.306.176.444-.12 1.1-.12 1.113-.118.948 0 1.719.771 1.719 1.718C17.583 67.888 17.695 68 17.833 68zM24.583 72A.5.5 0 1 0 24.583 73 .5.5 0 1 0 24.583 72z"/><path fill="#472b29" d="M16.083,73h3.5c0.276,0,0.5-0.224,0.5-0.5s-0.224-0.5-0.5-0.5h-3.5c-1.654,0-3-1.346-3-3 c0-1.496,1.125-2.768,2.618-2.959c0.134-0.018,0.255-0.088,0.336-0.196c0.081-0.108,0.115-0.244,0.094-0.377 c-0.024-0.153-0.049-0.308-0.049-0.468c0-1.654,1.346-3,3-3c0.85,0,1.638,0.355,2.219,1c0.125,0.139,0.321,0.198,0.5,0.148 c0.182-0.049,0.321-0.195,0.36-0.379C22.504,61.165,23.942,60,25.583,60c1.93,0,3.5,1.57,3.5,3.5c0,0.143-0.021,0.28-0.041,0.418 c-0.029,0.203,0.063,0.438,0.242,0.54c0.179,0.102,0.396,0.118,0.556-0.01C30.205,64.155,30.635,64,31.083,64 c0.966,0,1.792,0.691,1.963,1.644c0.048,0.267,0.296,0.446,0.569,0.405C33.769,66.025,33.923,66,34.083,66c1.654,0,3,1.346,3,3 s-1.346,3-3,3h-7.5c-0.276,0-0.5,0.224-0.5,0.5s0.224,0.5,0.5,0.5h7.5c2.206,0,4-1.794,4-4s-1.794-4-4-4 c-0.059,0-0.116,0.002-0.174,0.006C33.495,63.82,32.372,63,31.083,63c-0.349,0-0.689,0.061-1.011,0.18 C29.907,60.847,27.957,59,25.583,59c-1.831,0-3.466,1.127-4.153,2.774C20.75,61.276,19.928,61,19.083,61c-2.206,0-4,1.794-4,4 c0,0.048,0.001,0.095,0.004,0.142c-1.743,0.448-3.004,2.027-3.004,3.858C12.083,71.206,13.878,73,16.083,73z"/><path fill="#472b29" d="M21.583,72c0.159,0,0.841,0,1,0c0.276,0,0.5,0.224,0.5,0.5c0,0.276-0.224,0.5-0.5,0.5 c-0.159,0-0.841,0-1,0c-0.276,0-0.5-0.224-0.5-0.5C21.083,72.224,21.307,72,21.583,72z"/><g><path fill="#bebacb" d="M36.025,76.3c-0.415,0-0.761-0.328-0.788-0.746l-0.99-15.333l0.001-2.602h9.411v2.646L42.67,75.554 c-0.027,0.418-0.373,0.746-0.788,0.746H36.025z"/><path fill="#472b29" d="M42.959,58.319v1.901l-0.988,15.288c-0.003,0.051-0.043,0.092-0.089,0.092h-5.857 c-0.047,0-0.086-0.041-0.089-0.092L34.949,60.22v-1.901H42.959 M44.359,56.919H33.549v3.347l0.991,15.333 C34.59,76.387,35.24,77,36.025,77h5.857c0.785,0,1.435-0.613,1.486-1.401l0.991-15.333V56.919L44.359,56.919z"/></g><g><path fill="#f37e98" d="M33.538,59.3c-0.462,0-0.837-0.375-0.837-0.837V46.964c0-3.465,2.31-5.979,5.492-5.979h0.642 c3.27,0,6.466,4.446,6.466,7.766v9.713c0,0.462-0.375,0.837-0.837,0.837H33.538z"/><path fill="#472b29" d="M38.833,41.684c2.861,0,5.767,4.111,5.767,7.066v9.712c0,0.076-0.062,0.138-0.137,0.138H33.537 c-0.076,0-0.137-0.062-0.137-0.138V46.963c0-3.059,2.015-5.279,4.792-5.279H38.833 M38.833,40.284h-0.641 c-3.689,0-6.192,2.99-6.192,6.679v11.499C32,59.312,32.688,60,33.537,60h10.925C45.312,60,46,59.312,46,58.462V48.75 C46,45.061,42.522,40.284,38.833,40.284L38.833,40.284z"/></g><g><path fill="#fabf82" d="M36.634 38.981H39.644V41.889H36.634z"/><path fill="#472b29" d="M38.945,39.682v1.508h-1.611v-1.508H38.945 M40.345,38.282h-4.411v4.308h4.411V38.282 L40.345,38.282z"/></g><g><path fill="#472b29" d="M37.5,77c-0.276,0-0.5-0.224-0.5-0.5v-8c0-0.276,0.224-0.5,0.5-0.5s0.5,0.224,0.5,0.5v8 C38,76.776,37.776,77,37.5,77z"/></g><g><path fill="#472b29" d="M37.5,67c-0.276,0-0.5-0.224-0.5-0.5v-4c0-0.276,0.224-0.5,0.5-0.5s0.5,0.224,0.5,0.5v4 C38,66.776,37.776,67,37.5,67z"/></g><g><path fill="#fabf82" d="M51.806,51.792c4.956,0.48,6.764-2.126,7.419-3.866l3.715,0.732 c-0.951,3.098-3.761,6.933-9.94,6.933c-0.495,0-1.012-0.025-1.551-0.076c-1.028-0.099-1.783-1.012-1.684-2.04 C49.864,52.448,50.775,51.696,51.806,51.792z"/><path fill="#472b29" d="M53,56.292c-0.521,0-1.065-0.026-1.616-0.078c-1.413-0.136-2.451-1.394-2.315-2.804 c0.135-1.407,1.395-2.435,2.802-2.315l0.003,0.001c4.307,0.405,6.023-1.627,6.696-3.415l0.209-0.556l5.06,0.997l-0.229,0.742 C63.074,50.607,60.729,56.292,53,56.292z M51.631,52.484c-0.598,0-1.111,0.454-1.169,1.059c-0.03,0.312,0.063,0.615,0.262,0.856 c0.199,0.241,0.481,0.391,0.792,0.42c0.507,0.048,1.007,0.072,1.484,0.072c5.848,0,8.152-3.552,9.012-5.702l-2.365-0.466 c-0.864,1.826-2.96,4.244-7.906,3.766C51.703,52.485,51.667,52.484,51.631,52.484z"/></g><g><path fill="#bebacb" d="M62.306,76.3c-0.415,0-0.761-0.328-0.788-0.746l-0.99-15.333l0.001-2.602h9.411v2.646L68.95,75.554 c-0.027,0.418-0.373,0.746-0.788,0.746H62.306z"/><path fill="#472b29" d="M69.239,58.319v1.901l-0.988,15.288c-0.003,0.051-0.043,0.092-0.089,0.092h-5.857 c-0.047,0-0.086-0.041-0.089-0.092L61.229,60.22v-1.901H69.239 M70.639,56.919H59.829v3.347l0.991,15.333 C60.87,76.387,61.52,77,62.306,77h5.857c0.785,0,1.435-0.613,1.486-1.401l0.991-15.333V56.919L70.639,56.919z"/></g><g><path fill="#67ba8c" d="M59.275,59.3c-0.317,0-0.575-0.258-0.575-0.575V46.757c0-3.441,2.799-6.24,6.24-6.24h1.119 c3.441,0,6.24,2.799,6.24,6.24v11.968c0,0.317-0.258,0.575-0.575,0.575H59.275z"/><path fill="#472b29" d="M66.06,41.216c3.055,0,5.54,2.485,5.54,5.541V58.6H59.4V46.757c0-3.055,2.485-5.541,5.54-5.541 H66.06 M66.06,39.816h-1.12c-3.833,0-6.94,3.107-6.94,6.94v11.968C58,59.429,58.571,60,59.275,60h12.45 C72.429,60,73,59.429,73,58.725V46.757C73,42.924,69.893,39.816,66.06,39.816L66.06,39.816z"/></g><g><path fill="#fabf82" d="M64.499,42.095c-0.501,0-0.868-0.125-1.124-0.382c-0.424-0.426-0.425-1.106-0.425-1.113v-2.618 h3.011v2.608c0.002,0.044,0.026,0.718-0.372,1.134C65.354,41.97,64.987,42.095,64.499,42.095z"/><path fill="#472b29" d="M65.261,38.682v1.908l-0.001,0.019l0.003,0.042c0.003,0.124-0.039,0.446-0.182,0.592 c-0.123,0.126-0.384,0.152-0.582,0.152c-0.271,0-0.835,0-0.849-0.806v-1.908H65.261 M66.661,37.282H62.25v3.308 c0,0-0.047,2.206,2.249,2.206s2.162-2.206,2.162-2.206V37.282L66.661,37.282z"/></g><g><path fill="#fabf82" d="M64.455,39.487c3.041,0,5.514-2.473,5.514-5.514c0-3.068-2.517-5.558-5.595-5.513 c-2.926,0.042-5.39,2.506-5.432,5.432C58.898,36.97,61.387,39.487,64.455,39.487"/><path fill="#472b29" d="M64.455,40.188c-1.675,0-3.246-0.658-4.424-1.854c-1.178-1.194-1.813-2.775-1.789-4.45 c0.048-3.327,2.794-6.074,6.121-6.123c0.031,0,0.062,0,0.092,0c1.642,0,3.188,0.633,4.36,1.79c1.195,1.178,1.854,2.749,1.854,4.424 C70.669,37.399,67.881,40.188,64.455,40.188z M64.455,29.159c-0.024,0-0.048,0-0.071,0.001c-2.533,0.037-4.705,2.209-4.741,4.742 c-0.02,1.298,0.473,2.522,1.386,3.448c0.913,0.927,2.13,1.437,3.427,1.437c2.654,0,4.813-2.159,4.813-4.813 c0-1.297-0.51-2.514-1.436-3.427C66.924,29.65,65.727,29.159,64.455,29.159z"/></g><g><path fill="#472b29" d="M64.5,77c-0.276,0-0.5-0.224-0.5-0.5v-8c0-0.276,0.224-0.5,0.5-0.5s0.5,0.224,0.5,0.5v8 C65,76.776,64.776,77,64.5,77z"/></g><g><path fill="#472b29" d="M64.5,67c-0.276,0-0.5-0.224-0.5-0.5v-4c0-0.276,0.224-0.5,0.5-0.5s0.5,0.224,0.5,0.5v4 C65,66.776,64.776,67,64.5,67z"/></g><g><path fill="#472b29" d="M38.721,50.292c-0.094,0-0.187-0.026-0.268-0.078c-0.113-0.071-0.192-0.186-0.221-0.315 l-0.685-3.153c-0.059-0.271,0.113-0.536,0.383-0.595c0.268-0.059,0.536,0.112,0.595,0.382l0.577,2.659l5.288-1.215l-0.611-2.537 c-0.064-0.269,0.101-0.539,0.369-0.604c0.269-0.058,0.539,0.1,0.604,0.369l0.729,3.028c0.031,0.13,0.009,0.267-0.061,0.38 c-0.07,0.114-0.183,0.194-0.313,0.225l-6.274,1.441C38.796,50.288,38.759,50.292,38.721,50.292z"/></g><g><path fill="#fabf82" d="M68.509,49.87v10.168c0,1.013,0.838,1.835,1.87,1.835c1.033,0,1.87-0.822,1.87-1.835V49.87H68.509z"/><path fill="#472b29" d="M70.38,62.573c-1.418,0-2.571-1.138-2.571-2.535V49.17h5.142v10.868 C72.95,61.436,71.797,62.573,70.38,62.573z M69.209,50.57v9.468c0,0.626,0.525,1.135,1.171,1.135s1.17-0.509,1.17-1.135V50.57 H69.209z"/></g><g><path fill="#fabf82" d="M38.732,39.487c3.068,0,5.558-2.517,5.513-5.595c-0.042-2.926-2.506-5.39-5.432-5.432 c-3.078-0.044-5.595,2.445-5.595,5.513C33.219,37.015,35.691,39.487,38.732,39.487"/><path fill="#472b29" d="M38.732,40.188c-3.426,0-6.214-2.788-6.214-6.214c0-1.675,0.658-3.246,1.854-4.424 c1.194-1.178,2.781-1.822,4.451-1.79c3.328,0.049,6.074,2.796,6.122,6.123c0.024,1.675-0.611,3.256-1.789,4.451 C41.979,39.529,40.407,40.188,38.732,40.188z M38.732,29.159c-1.271,0-2.468,0.491-3.377,1.388 c-0.926,0.913-1.436,2.13-1.436,3.427c0,2.654,2.159,4.813,4.813,4.813c1.297,0,2.514-0.51,3.427-1.437 c0.913-0.926,1.405-2.15,1.386-3.448c-0.037-2.533-2.209-4.705-4.743-4.742C38.78,29.159,38.756,29.159,38.732,29.159z"/></g><g><path fill="#472b29" d="M38.482,26.254c-2.939,0.242-5.765,2.128-5.765,6.147l0.02,2.096 c0.049,1.021,2.567,0.535,3.069,0.146c1.169-0.906,1.098-2.554,1.098-2.554c2.76,0.041,5.858-0.508,6.442-1.158 c0.922-1.117,1.327-2.344,0.935-3.741C42.031,27.542,41.3,26.168,38.482,26.254z"/><path fill="#472b29" d="M33.871,35.803c-0.398,0-0.776-0.056-1.074-0.193c-0.459-0.211-0.736-0.604-0.759-1.078 l-0.021-2.123c0-4.671,3.452-6.609,6.409-6.852l0.036-0.002c1.528-0.044,2.483,0.295,3.333,0.595 c0.789,0.28,1.412,0.499,2.38,0.351l0.614-0.096l0.168,0.598c0.428,1.524,0.068,2.996-1.069,4.375 c-0.837,0.934-4.045,1.364-6.333,1.41c-0.105,0.687-0.416,1.71-1.318,2.409C35.852,35.493,34.806,35.803,33.871,35.803z M33.436,34.363c0.396,0.141,1.615-0.052,1.946-0.276c0.855-0.663,0.823-1.957,0.823-1.971l-0.024-0.733l0.734,0.007 c2.973,0.07,5.565-0.585,5.913-0.929c0.684-0.83,0.978-1.646,0.889-2.515c-0.954,0.034-1.686-0.228-2.391-0.477 c-0.765-0.271-1.553-0.548-2.804-0.517c-2.472,0.209-5.105,1.749-5.105,5.448L33.436,34.363z"/></g><g><path fill="#472b29" d="M64.572,26.254c2.939,0.242,5.765,2.128,5.765,6.147l-0.02,2.096 c-0.049,1.021-2.567,0.535-3.069,0.146c-1.169-0.906-1.098-2.554-1.098-2.554c-2.76,0.041-5.858-0.508-6.442-1.158 c-0.922-1.117-1.327-2.344-0.935-3.741C61.023,27.542,61.754,26.168,64.572,26.254z"/><path fill="#472b29" d="M69.184,35.803c-0.935,0-1.98-0.309-2.364-0.605c-0.902-0.7-1.212-1.724-1.317-2.41 c-2.288-0.046-5.494-0.475-6.314-1.388c-1.157-1.4-1.517-2.873-1.089-4.397l0.168-0.598L58.88,26.5 c0.969,0.147,1.591-0.07,2.381-0.351c0.85-0.301,1.798-0.646,3.333-0.595l0.036,0.002c2.955,0.242,6.407,2.181,6.407,6.845 l-0.02,2.103c-0.023,0.5-0.3,0.894-0.76,1.105C69.96,35.747,69.582,35.803,69.184,35.803z M66.882,31.379L66.85,32.12 c0,0.01-0.032,1.304,0.827,1.971c0.327,0.222,1.547,0.414,1.942,0.272l0.018-1.969c0-3.692-2.633-5.232-5.104-5.441 c-1.245-0.03-2.038,0.246-2.805,0.517c-0.704,0.25-1.442,0.524-2.391,0.477c-0.088,0.87,0.208,1.689,0.91,2.54 c0.326,0.317,2.867,0.959,5.893,0.903L66.882,31.379z"/></g><g><path fill="#472b29" d="M72.532,50.137h-6.547c-0.276,0-0.5-0.224-0.5-0.5v-3.741c0-0.276,0.224-0.5,0.5-0.5 s0.5,0.224,0.5,0.5v3.241h6.047c0.276,0,0.5,0.224,0.5,0.5S72.809,50.137,72.532,50.137z"/></g><g><path fill="#fabf82" d="M51.246,51.851c-4.374,0.424-6.294-1.556-7.135-3.223l-3.704,0.907c1.173,2.916,4,6.116,9.645,6.116 c0.495,0,1.012-0.025,1.551-0.076c1.028-0.099,1.783-1.012,1.684-2.04S52.278,51.754,51.246,51.851z"/><path fill="#472b29" d="M50.052,56.351c-6.913,0-9.502-4.584-10.295-6.555l-0.301-0.749l5.029-1.231l0.251,0.497 c0.761,1.508,2.501,3.219,6.443,2.842l0.002-0.001c1.407-0.113,2.668,0.907,2.804,2.315c0.065,0.683-0.14,1.351-0.577,1.881 c-0.437,0.529-1.054,0.856-1.737,0.922C51.122,56.323,50.578,56.351,50.052,56.351z M41.391,50.015 c1.064,2.115,3.46,4.936,8.662,4.936c0.48,0,0.98-0.024,1.484-0.073c0.313-0.029,0.593-0.178,0.792-0.419s0.292-0.545,0.262-0.855 c-0.062-0.642-0.643-1.122-1.276-1.055c-4.333,0.417-6.485-1.355-7.555-3.113L41.391,50.015z"/></g></svg>