<svg xmlns="http://www.w3.org/2000/svg" viewBox="0 0 24 24" width="48px" height="48px"><path d="M 12 4.5 C 7.099 4.5 2.5245 7.2827656 0.0625 11.759766 C -0.0205 11.909766 -0.0205 12.091234 0.0625 12.240234 C 2.5245 16.718234 7.099 19.5 12 19.5 C 16.901 19.5 21.4755 16.717234 23.9375 12.240234 C 24.0205 12.090234 24.0205 11.908766 23.9375 11.759766 C 21.4755 7.2817656 16.901 4.5 12 4.5 z M 12 5.5 C 16.448 5.5 20.609781 7.983 22.925781 12 C 20.609781 16.017 16.448 18.5 12 18.5 C 7.552 18.5 3.3902187 16.017 1.0742188 12 C 3.3902187 7.983 7.552 5.5 12 5.5 z M 12 8.5 C 11.572 8.5 11.166109 8.5885156 10.787109 8.7285156 C 11.213109 8.9935156 11.5 9.461 11.5 10 C 11.5 10.828 10.828 11.5 10 11.5 C 9.461 11.5 8.9935156 11.213109 8.7285156 10.787109 C 8.5885156 11.166109 8.5 11.572 8.5 12 C 8.5 13.933 10.067 15.5 12 15.5 C 13.933 15.5 15.5 13.933 15.5 12 C 15.5 10.067 13.933 8.5 12 8.5 z"/></svg>