<svg xmlns="http://www.w3.org/2000/svg" viewBox="0 0 100 100" width="200px" height="200px"><path fill="#f1bc19" d="M77 12A1 1 0 1 0 77 14A1 1 0 1 0 77 12Z"/><path fill="#e6edb7" d="M50 13A37 37 0 1 0 50 87A37 37 0 1 0 50 13Z"/><path fill="#f1bc19" d="M83 11A4 4 0 1 0 83 19A4 4 0 1 0 83 11Z"/><path fill="#88ae45" d="M87 22A2 2 0 1 0 87 26A2 2 0 1 0 87 22Z"/><path fill="#fbcd59" d="M81 74A2 2 0 1 0 81 78 2 2 0 1 0 81 74zM15 59A4 4 0 1 0 15 67 4 4 0 1 0 15 59z"/><path fill="#88ae45" d="M25 85A2 2 0 1 0 25 89A2 2 0 1 0 25 85Z"/><path fill="#fff" d="M18.5 49A2.5 2.5 0 1 0 18.5 54 2.5 2.5 0 1 0 18.5 49zM79.5 32A1.5 1.5 0 1 0 79.5 35 1.5 1.5 0 1 0 79.5 32z"/><path fill="#fdfcef" d="M23.7,63.299V32.833c0-2.279,1.502-4.133,3.349-4.133H72.95c1.847,0,3.35,1.854,3.35,4.133V63.3 L23.7,63.299z"/><path fill="#472b29" d="M72.951,29.4c1.436,0,2.65,1.572,2.65,3.433V62.6l-51.2-0.001V32.833 c0-1.861,1.213-3.433,2.65-3.433H72.951 M72.951,28H27.049C24.822,28,23,30.175,23,32.833v31.166L77,64V32.833 C77,30.175,75.178,28,72.951,28L72.951,28z"/><path fill="#c0e5e4" d="M71.5 36.435L71.5 59.5 28.5 59.5 28.5 56.565 28.5 47.338 28.5 33.5 70.579 33.5 71.5 33.5z"/><path fill="#c0e5e4" d="M71.5 37.75L71.5 59.5 28.5 59.5 28.5 56.565 28.5 54.083"/><path fill="#472b29" d="M71.5,60h-43c-0.276,0-0.5-0.224-0.5-0.5v-5.417c0-0.276,0.224-0.5,0.5-0.5s0.5,0.224,0.5,0.5V59h42 V37.75c0-0.276,0.224-0.5,0.5-0.5s0.5,0.224,0.5,0.5V59.5C72,59.776,71.776,60,71.5,60z"/><path fill="#472b29" d="M46.379,55.121c-0.128,0-0.256-0.049-0.354-0.146c-0.195-0.195-0.195-0.512,0-0.707l4.242-4.242 c0.195-0.195,0.512-0.195,0.707,0s0.195,0.512,0,0.707l-4.242,4.242C46.635,55.072,46.507,55.121,46.379,55.121z"/><path fill="#c0e5e4" d="M28.5 47.338L28.5 33.5 70.579 33.5 71.5 33.5"/><path fill="#472b29" d="M28.5,47.839c-0.276,0-0.5-0.224-0.5-0.5V33.5c0-0.276,0.224-0.5,0.5-0.5h43 c0.276,0,0.5,0.224,0.5,0.5S71.776,34,71.5,34H29v13.339C29,47.615,28.776,47.839,28.5,47.839z"/><path fill="#e1e0d8" d="M25.351,69.3c-2.013,0-3.65-1.648-3.65-3.675V63.7h56.6v1.925c0,2.026-1.638,3.675-3.65,3.675 H25.351z"/><path fill="#472b29" d="M77.6 64.4v1.225c0 1.64-1.324 2.975-2.95 2.975H25.35c-1.627 0-2.95-1.335-2.95-2.975V64.4H77.6M79 63H21v2.625C21 68.032 22.957 70 25.35 70H74.65c2.393 0 4.35-1.969 4.35-4.375V63L79 63zM50.368 31.06H48.96c-.166 0-.304-.136-.304-.304v-.065c0-.166.136-.304.304-.304h1.408c.166 0 .304.136.304.304v.065C50.672 30.924 50.535 31.06 50.368 31.06z"/><path fill="#a2b3cb" d="M45.674 38.599L34.84 50.675 34.956 54 38.546 54 38.666 53.867 38.062 52.171 39.563 52.052 39.252 50.844 40.753 50.726 40.442 49.517 42.525 49.566 49.38 41.924"/><path fill="#472b29" d="M38.657,54h-3.464c-0.278,0-0.507-0.221-0.516-0.499l-0.112-3.206 c-0.005-0.129,0.041-0.255,0.127-0.352L45.191,38.24c0.185-0.205,0.502-0.223,0.707-0.038c0.206,0.184,0.223,0.5,0.038,0.707 L35.573,50.462L35.661,53h2.448l-0.393-1.105c-0.052-0.147-0.033-0.31,0.052-0.44c0.084-0.13,0.225-0.214,0.38-0.227l0.861-0.067 l-0.153-0.595c-0.037-0.143-0.008-0.295,0.078-0.415c0.085-0.12,0.22-0.196,0.367-0.208l0.861-0.068L40.01,49.28 c-0.039-0.151-0.005-0.312,0.093-0.436c0.097-0.123,0.239-0.196,0.403-0.189l1.788,0.041l6.489-7.233 c0.185-0.205,0.501-0.222,0.707-0.038c0.206,0.184,0.223,0.5,0.038,0.707l-6.644,7.404c-0.097,0.109-0.235,0.161-0.384,0.166 l-1.357-0.031l0.137,0.531c0.037,0.143,0.008,0.295-0.078,0.415c-0.085,0.12-0.22,0.196-0.367,0.208l-0.861,0.068l0.153,0.595 c0.037,0.143,0.008,0.295-0.078,0.415c-0.086,0.12-0.22,0.196-0.368,0.208l-0.803,0.063l0.366,1.028 c0.062,0.173,0.023,0.366-0.099,0.503l-0.116,0.129C38.936,53.94,38.799,54,38.657,54z"/><path fill="#ee3e54" d="M59.681,28.787c-2.766-3.751-8.05-4.548-11.8-1.782s-4.548,8.05-1.782,11.8s8.05,4.548,11.8,1.782 C61.65,37.82,62.447,32.538,59.681,28.787z M58.194,37.018l-8.87-7.957c2.336-1.527,5.441-1.407,7.56,0.495 C59.004,31.457,59.459,34.531,58.194,37.018z"/><path fill="#472b29" d="M52.902 42.747c-2.75 0-5.464-1.258-7.218-3.636-1.42-1.925-2.005-4.288-1.649-6.652.357-2.365 1.613-4.45 3.539-5.87 3.975-2.93 9.592-2.083 12.523 1.891l0 0c2.93 3.974 2.082 9.592-1.891 12.522C56.609 42.18 54.748 42.747 52.902 42.747zM52.88 25.877c-1.633 0-3.281.502-4.693 1.544-1.702 1.256-2.815 3.1-3.131 5.193-.316 2.093.202 4.182 1.458 5.886 2.593 3.516 7.562 4.266 11.078 1.673 3.515-2.593 4.265-7.562 1.673-11.078C57.714 26.991 55.313 25.877 52.88 25.877zM58.194 37.534c-.126 0-.249-.046-.345-.132l-8.87-7.957c-.12-.107-.182-.263-.17-.424s.098-.305.232-.393c2.584-1.688 5.95-1.465 8.188.542 2.237 2.007 2.823 5.33 1.424 8.081-.072.144-.208.244-.366.274C58.257 37.531 58.226 37.534 58.194 37.534zM50.2 29.153l7.809 7.004c.815-2.195.255-4.671-1.469-6.217C54.816 28.394 52.292 28.105 50.2 29.153zM35.09 53.074c-.062 0-.123-.022-.173-.066-.106-.095-.115-.258-.02-.365l7.328-8.167c.095-.106.259-.115.365-.02.106.095.115.258.02.365l-7.328 8.167C35.231 53.045 35.16 53.074 35.09 53.074zM43.222 44.009c-.062 0-.123-.022-.173-.066-.106-.095-.115-.258-.02-.365l.754-.841c.095-.106.258-.115.365-.02.106.095.115.258.02.365l-.754.841C43.363 43.98 43.293 44.009 43.222 44.009z"/><g><path fill="#472b29" d="M44.715,42.345c-0.062,0-0.123-0.022-0.172-0.066c-0.106-0.095-0.115-0.258-0.02-0.365l0.108-0.122 c0.095-0.106,0.259-0.115,0.365-0.02c0.106,0.095,0.115,0.258,0.02,0.365l-0.108,0.122C44.857,42.316,44.785,42.345,44.715,42.345 z"/></g><g><path fill="#472b29" d="M58.543,32.852c-0.012,0-0.026,0-0.038-0.001c-0.996-0.073-1.815-0.442-2.656-1.197 c-0.958-0.859-1.524-2.04-1.593-3.324c-0.069-1.285,0.366-2.519,1.225-3.478c1.773-1.977,4.824-2.142,6.802-0.369 c1.977,1.774,2.142,4.825,0.369,6.802c-0.248,0.277-0.527,0.523-0.827,0.733c-0.234,0.164-0.556,0.107-0.719-0.127 c-0.163-0.233-0.106-0.556,0.127-0.719c0.237-0.165,0.456-0.36,0.651-0.577c1.393-1.552,1.263-3.95-0.29-5.343 c-1.552-1.391-3.95-1.262-5.343,0.29c-0.675,0.752-1.016,1.722-0.962,2.732c0.055,1.009,0.499,1.937,1.252,2.611 c0.677,0.607,1.268,0.879,2.041,0.936c0.284,0.021,0.498,0.269,0.477,0.553C59.038,32.645,58.81,32.852,58.543,32.852z"/></g><g><path fill="#472b29" d="M22.391 67.801c-.026 0-.052-.007-.075-.021-.071-.042-.093-.132-.051-.201l2.713-4.541c.041-.071.131-.093.201-.051.071.042.093.132.051.201l-2.713 4.541C22.49 67.775 22.441 67.801 22.391 67.801zM23.523 68.461c-.027 0-.054-.007-.078-.022-.069-.044-.089-.134-.047-.202l3.423-5.452c.045-.069.135-.088.202-.047.069.044.089.134.047.202l-3.423 5.452C23.619 68.436 23.571 68.461 23.523 68.461zM24.728 69c-.027 0-.054-.007-.078-.022-.069-.044-.089-.134-.047-.202l3.423-5.452c.045-.069.135-.087.202-.047.069.044.089.134.047.202l-3.423 5.452C24.824 68.976 24.777 69 24.728 69zM27.101 68.102c-.027 0-.054-.007-.078-.022-.069-.044-.089-.134-.047-.202l2.865-4.564c.044-.069.136-.088.202-.047.069.044.089.134.047.202l-2.865 4.564C27.197 68.078 27.149 68.102 27.101 68.102zM29.588 66.899c-.027 0-.054-.007-.078-.022-.069-.044-.089-.134-.047-.202l2.019-3.217c.045-.069.136-.088.202-.047.069.044.089.134.047.202l-2.019 3.217C29.685 66.874 29.637 66.899 29.588 66.899z"/></g><g><path fill="#472b29" d="M48.5,56c-0.276,0-0.5-0.224-0.5-0.5v-6c0-0.276,0.224-0.5,0.5-0.5s0.5,0.224,0.5,0.5v6 C49,55.776,48.776,56,48.5,56z"/></g><g><path fill="#472b29" d="M50.621,55.121c-0.128,0-0.256-0.049-0.354-0.146l-4.242-4.242c-0.195-0.195-0.195-0.512,0-0.707 s0.512-0.195,0.707,0l4.242,4.242c0.195,0.195,0.195,0.512,0,0.707C50.877,55.072,50.749,55.121,50.621,55.121z"/></g><g><path fill="#472b29" d="M51.5,53h-6c-0.276,0-0.5-0.224-0.5-0.5s0.224-0.5,0.5-0.5h6c0.276,0,0.5,0.224,0.5,0.5 S51.776,53,51.5,53z"/></g><g><path fill="#472b29" d="M53.5,67h-6c-0.276,0-0.5-0.224-0.5-0.5s0.224-0.5,0.5-0.5h6c0.276,0,0.5,0.224,0.5,0.5 S53.776,67,53.5,67z"/></g><g><path fill="#472b29" d="M54.379,55.121c-0.128,0-0.256-0.049-0.354-0.146c-0.195-0.195-0.195-0.512,0-0.707l4.242-4.242 c0.195-0.195,0.512-0.195,0.707,0s0.195,0.512,0,0.707l-4.242,4.242C54.635,55.072,54.507,55.121,54.379,55.121z"/></g><g><path fill="#472b29" d="M56.5,56c-0.276,0-0.5-0.224-0.5-0.5v-6c0-0.276,0.224-0.5,0.5-0.5s0.5,0.224,0.5,0.5v6 C57,55.776,56.776,56,56.5,56z"/></g><g><path fill="#472b29" d="M58.621,55.121c-0.128,0-0.256-0.049-0.354-0.146l-4.242-4.242c-0.195-0.195-0.195-0.512,0-0.707 s0.512-0.195,0.707,0l4.242,4.242c0.195,0.195,0.195,0.512,0,0.707C58.877,55.072,58.749,55.121,58.621,55.121z"/></g><g><path fill="#472b29" d="M59.5,53h-6c-0.276,0-0.5-0.224-0.5-0.5s0.224-0.5,0.5-0.5h6c0.276,0,0.5,0.224,0.5,0.5 S59.776,53,59.5,53z"/></g><g><path fill="#472b29" d="M62.379,55.121c-0.128,0-0.256-0.049-0.354-0.146c-0.195-0.195-0.195-0.512,0-0.707l4.242-4.242 c0.195-0.195,0.512-0.195,0.707,0s0.195,0.512,0,0.707l-4.242,4.242C62.635,55.072,62.507,55.121,62.379,55.121z"/></g><g><path fill="#472b29" d="M64.5,56c-0.276,0-0.5-0.224-0.5-0.5v-6c0-0.276,0.224-0.5,0.5-0.5s0.5,0.224,0.5,0.5v6 C65,55.776,64.776,56,64.5,56z"/></g><g><path fill="#472b29" d="M66.621,55.121c-0.128,0-0.256-0.049-0.354-0.146l-4.242-4.242c-0.195-0.195-0.195-0.512,0-0.707 s0.512-0.195,0.707,0l4.242,4.242c0.195,0.195,0.195,0.512,0,0.707C66.877,55.072,66.749,55.121,66.621,55.121z"/></g><g><path fill="#472b29" d="M67.5,53h-6c-0.276,0-0.5-0.224-0.5-0.5s0.224-0.5,0.5-0.5h6c0.276,0,0.5,0.224,0.5,0.5 S67.776,53,67.5,53z"/></g></svg>